<svg width="52" height="35" viewBox="0 0 52 35" fill="none" xmlns="http://www.w3.org/2000/svg">
<g clip-path="url(#clip0_67_52)">
<path d="M3.22986 32.348C4.71786 32.036 5.83386 31.304 6.57786 30.152C7.32186 29.024 7.69386 27.56 7.69386 25.76V6.068C7.69386 5.612 7.51386 5.288 7.15386 5.096C6.81786 4.88 6.30186 4.772 5.60586 4.772H4.56186V3.8H14.3899V4.772H13.3099C11.9179 4.772 11.2219 5.204 11.2219 6.068V25.796C11.2219 28.148 10.5139 29.948 9.09786 31.196C7.68186 32.468 5.77386 33.104 3.37386 33.104L3.22986 32.348ZM22.1701 28.064H23.1781C24.5941 28.064 25.3021 27.632 25.3021 26.768V5.276H20.2981C19.3381 5.276 18.6661 5.876 18.2821 7.076C17.8981 8.276 17.6941 9.488 17.6701 10.712H16.6981V3.8H37.4341V10.712H36.4621C36.3901 9.44 36.1621 8.216 35.7781 7.04C35.4181 5.864 34.7701 5.276 33.8341 5.276H28.8301V26.768C28.8301 27.632 29.5261 28.064 30.9181 28.064H31.9621V29H22.1701V28.064ZM37.8939 32.348C39.3819 32.036 40.4979 31.304 41.2419 30.152C41.9859 29.024 42.3579 27.56 42.3579 25.76V6.068C42.3579 5.612 42.1779 5.288 41.8179 5.096C41.4819 4.88 40.9659 4.772 40.2699 4.772H39.2259V3.8H49.0539V4.772H47.9739C46.5819 4.772 45.8859 5.204 45.8859 6.068V25.796C45.8859 28.148 45.1779 29.948 43.7619 31.196C42.3459 32.468 40.4379 33.104 38.0379 33.104L37.8939 32.348Z" fill="#708090"/>
</g>
<defs>
<clipPath id="clip0_67_52">
<rect width="52" height="35" fill="white"/>
</clipPath>
</defs>
</svg>
