<?xml version="1.0" standalone="no"?>
<!DOCTYPE svg PUBLIC "-//W3C//DTD SVG 20010904//EN"
 "http://www.w3.org/TR/2001/REC-SVG-20010904/DTD/svg10.dtd">
<svg version="1.0" xmlns="http://www.w3.org/2000/svg"
 width="588.000000pt" height="588.000000pt" viewBox="0 0 588.000000 588.000000"
 preserveAspectRatio="xMidYMid meet">
<metadata>
Created by potrace 1.14, written by Peter Selinger 2001-2017
</metadata>
<g transform="translate(0.000000,588.000000) scale(0.100000,-0.100000)"
fill="#000000" stroke="none">
<path d="M570 4330 l0 -60 98 -1 c112 0 174 -19 206 -62 21 -28 21 -29 24
-1070 2 -689 -1 -1078 -8 -1148 -21 -207 -75 -344 -180 -450 -67 -68 -175
-132 -246 -145 -33 -6 -34 -7 -28 -43 4 -20 9 -40 12 -45 8 -14 209 2 302 24
46 11 125 40 175 64 210 100 330 238 397 456 l23 75 5 1125 c5 1053 6 1128 23
1153 31 47 71 61 195 65 l112 4 0 59 0 59 -555 0 -555 0 0 -60z"/>
<path d="M1910 4005 l0 -385 54 0 55 0 5 48 c37 314 92 467 188 522 43 25 44
25 328 25 l285 0 0 -1135 c0 -1067 -1 -1138 -18 -1163 -31 -47 -71 -61 -194
-65 l-113 -4 0 -59 0 -59 555 0 555 0 0 60 0 60 -92 0 c-112 0 -158 12 -201
50 l-32 28 0 1144 0 1143 255 3 c274 3 323 -3 377 -44 66 -50 130 -236 154
-448 l13 -106 58 0 58 0 0 385 0 385 -1145 0 -1145 0 0 -385z"/>
<path d="M4390 4331 l0 -59 108 -4 c119 -4 168 -21 199 -66 17 -26 18 -82 18
-1132 0 -1104 0 -1105 -22 -1205 -46 -205 -149 -352 -301 -428 -40 -20 -89
-39 -109 -43 -33 -6 -35 -9 -29 -37 3 -16 6 -36 6 -43 0 -31 226 -11 365 33
271 85 446 258 518 512 22 75 22 86 27 1196 5 1048 6 1123 23 1148 31 47 71
61 195 65 l112 4 0 59 0 59 -555 0 -555 0 0 -59z"/>
</g>
</svg>
